# xmcd
#
# Track frame offsets:
#	150
#	17844
#	29572
#	49809
#	63101
#	80594
#	104169
#	124190
#	148334
#	162005
#	180410
#
# Disc length: 2576 seconds
#
# Revision: 1
# Processed by: cddbd v1.4PL0 Copyright (c) Steve Scherf et al.
# Submitted via: audiograbber 1.81.03
#
DISCID=980a0e0b
DTITLE=Scarecrows - Rattlesnake Law
DYEAR=2003
DGENRE=Other
TTITLE0=The Baron Grip
TTITLE1=Brake Your Love
TTITLE2=Scream of Conscience
TTITLE3=So far .. So long
TTITLE4=Statement of Amelia
TTITLE5=Rattlesnake Law
TTITLE6=The Mess I'm In
TTITLE7=One for the Silverscreen
TTITLE8=Roadsounds and cheatings songs
TTITLE9=Cyanide Eyes
TTITLE10=Weasel
EXTD=
EXTT0=
EXTT1=
EXTT2=
EXTT3=
EXTT4=
EXTT5=
EXTT6=
EXTT7=
EXTT8=
EXTT9=
EXTT10=
PLAYORDER=
